<svg width="47" height="47" viewBox="0 0 47 47" fill="none" xmlns="http://www.w3.org/2000/svg">
<g>
<path d="M23.5 31.3334C25.5776 31.3334 27.57 30.5081 29.0389 29.039C30.5081 27.57 31.3333 25.5776 31.3333 23.5C31.3333 21.4224 30.5081 19.4301 29.0389 17.961C27.57 16.492 25.5776 15.6667 23.5 15.6667C21.4224 15.6667 19.43 16.492 17.961 17.961C16.492 19.4301 15.6667 21.4224 15.6667 23.5C15.6667 25.5776 16.492 27.57 17.961 29.039C19.43 30.5081 21.4224 31.3334 23.5 31.3334Z" stroke="black" stroke-width="1.5" stroke-linecap="round" stroke-linejoin="round"/>
<path d="M5.875 31.3333V15.6667C5.875 13.0698 6.90661 10.5792 8.74292 8.74292C10.5792 6.90661 13.0698 5.875 15.6667 5.875H31.3333C33.9303 5.875 36.4209 6.90661 38.257 8.74292C40.0933 10.5792 41.125 13.0698 41.125 15.6667V31.3333C41.125 33.9303 40.0933 36.4209 38.257 38.257C36.4209 40.0933 33.9303 41.125 31.3333 41.125H15.6667C13.0698 41.125 10.5792 40.0933 8.74292 38.257C6.90661 36.4209 5.875 33.9303 5.875 31.3333Z" stroke="black" stroke-width="1.5"/>
<path d="M34.2708 12.7485L34.2902 12.7272" stroke="black" stroke-width="1.5" stroke-linecap="round" stroke-linejoin="round"/>
</g>
</svg>