<svg width="47" height="47" viewBox="0 0 47 47" fill="none" xmlns="http://www.w3.org/2000/svg">
<path d="M13.7083 33.2917V19.5833M41.125 15.6667V31.3333C41.125 33.9302 40.0934 36.4208 38.2571 38.2571C36.4208 40.0934 33.9302 41.125 31.3333 41.125H15.6667C13.0698 41.125 10.5792 40.0934 8.74291 38.2571C6.90662 36.4208 5.875 33.9302 5.875 31.3333V15.6667C5.875 13.0698 6.90662 10.5792 8.74291 8.74291C10.5792 6.90662 13.0698 5.875 15.6667 5.875H31.3333C33.9302 5.875 36.4208 6.90662 38.2571 8.74291C40.0934 10.5792 41.125 13.0698 41.125 15.6667Z" stroke="black" stroke-width="1.5" stroke-linecap="round" stroke-linejoin="round"/>
<path d="M21.5417 33.2917V26.9271M21.5417 26.9271V19.5833M21.5417 26.9271C21.5417 19.5833 33.2917 19.5833 33.2917 26.9271V33.2917M13.7083 13.7279L13.7279 13.7064" stroke="black" stroke-width="1.5" stroke-linecap="round" stroke-linejoin="round"/>
</svg>