<svg  xmlns="http://www.w3.org/2000/svg"> 
            <symbol id="instagram" viewBox="0 0 47 47"> 
                <g>
                    <path d="M23.5 31.3334C25.5776 31.3334 27.57 30.5081 29.0389 29.039C30.5081 27.57 31.3333 25.5776 31.3333 23.5C31.3333 21.4224 30.5081 19.4301 29.0389 17.961C27.57 16.492 25.5776 15.6667 23.5 15.6667C21.4224 15.6667 19.43 16.492 17.961 17.961C16.492 19.4301 15.6667 21.4224 15.6667 23.5C15.6667 25.5776 16.492 27.57 17.961 29.039C19.43 30.5081 21.4224 31.3334 23.5 31.3334Z"/>
                    <path d="M5.875 31.3333V15.6667C5.875 13.0698 6.90661 10.5792 8.74292 8.74292C10.5792 6.90661 13.0698 5.875 15.6667 5.875H31.3333C33.9303 5.875 36.4209 6.90661 38.257 8.74292C40.0933 10.5792 41.125 13.0698 41.125 15.6667V31.3333C41.125 33.9303 40.0933 36.4209 38.257 38.257C36.4209 40.0933 33.9303 41.125 31.3333 41.125H15.6667C13.0698 41.125 10.5792 40.0933 8.74292 38.257C6.90661 36.4209 5.875 33.9303 5.875 31.3333Z"/>
                    <path d="M34.2708 12.7485L34.2902 12.7272"/>
                </g>
            </symbol>

            <symbol id="telegram" viewBox="0 0 37 37">
                <g clip-path="url(#clip0_2507_14)">
                    <path d="M29.0042 11.4971L22.0014 29.8795L14.1232 22.0014L29.0042 11.4971ZM29.0042 11.4971L6.24506 19.3753L14.1232 22.0014L29.0042 11.4971ZM29.0042 11.4971L14.1232 22.0014L29.0042 11.4971Z"/>
                    <path d="M18.5 36.0071C28.1692 36.0071 36.0071 28.1692 36.0071 18.5C36.0071 8.83082 28.1692 0.99292 18.5 0.99292C8.83085 0.99292 0.99295 8.83082 0.99295 18.5C0.99295 28.1692 8.83085 36.0071 18.5 36.0071Z"/>
                </g>
            </symbol>

            <symbol id="linkedin" viewBox="0 0 47 47">
                <g>
                    <path d="M13.7083 33.2917V19.5833M41.125 15.6667V31.3333C41.125 33.9302 40.0934 36.4208 38.2571 38.2571C36.4208 40.0934 33.9302 41.125 31.3333 41.125H15.6667C13.0698 41.125 10.5792 40.0934 8.74291 38.2571C6.90662 36.4208 5.875 33.9302 5.875 31.3333V15.6667C5.875 13.0698 6.90662 10.5792 8.74291 8.74291C10.5792 6.90662 13.0698 5.875 15.6667 5.875H31.3333C33.9302 5.875 36.4208 6.90662 38.2571 8.74291C40.0934 10.5792 41.125 13.0698 41.125 15.6667Z"/>
                    <path d="M21.5417 33.2917V26.9271M21.5417 26.9271V19.5833M21.5417 26.9271C21.5417 19.5833 33.2917 19.5833 33.2917 26.9271V33.2917M13.7083 13.7279L13.7279 13.7064"/>
                </g>
            </symbol>
        </svg>